<svg width="188" height="149" viewBox="0 0 188 149" fill="none" xmlns="http://www.w3.org/2000/svg">
<mask id="path-1-inside-1_310_838" fill="white">
<path d="M114 0.849976C94.374 0.849976 75.5518 8.64638 61.6741 22.5241C47.7964 36.4018 40 55.224 40 74.85C40 94.476 47.7964 113.298 61.6741 127.176C75.5518 141.054 94.374 148.85 114 148.85L114 74.85L114 0.849976Z"/>
</mask>
<path d="M114 0.849976C94.374 0.849976 75.5518 8.64638 61.6741 22.5241C47.7964 36.4018 40 55.224 40 74.85C40 94.476 47.7964 113.298 61.6741 127.176C75.5518 141.054 94.374 148.85 114 148.85L114 74.85L114 0.849976Z" stroke="#5C5C5C" stroke-width="1.68182" mask="url(#path-1-inside-1_310_838)"/>
<mask id="path-2-inside-2_310_838" fill="white">
<path d="M74 0.849976C54.374 0.849976 35.5518 8.64638 21.6741 22.5241C7.79641 36.4018 2.5982e-06 55.224 8.82441e-07 74.85C-8.3332e-07 94.476 7.7964 113.298 21.6741 127.176C35.5518 141.054 54.374 148.85 74 148.85L74 74.85L74 0.849976Z"/>
</mask>
<path d="M74 0.849976C54.374 0.849976 35.5518 8.64638 21.6741 22.5241C7.79641 36.4018 2.5982e-06 55.224 8.82441e-07 74.85C-8.3332e-07 94.476 7.7964 113.298 21.6741 127.176C35.5518 141.054 54.374 148.85 74 148.85L74 74.85L74 0.849976Z" stroke="#5C5C5C" stroke-width="1.68182" mask="url(#path-2-inside-2_310_838)"/>
</svg>
