<svg width="23" height="20" viewBox="0 0 23 20" fill="none" xmlns="http://www.w3.org/2000/svg">
<path d="M8.26403 1.72265L8.00636 1.33615L7.60197 1.56472C5.57884 2.70823 3.88268 4.20577 2.51771 6.05508L2.51766 6.05504L2.51313 6.06138C1.15676 7.96031 0.5 10.3961 0.5 13.328V18.32V18.82H1H9.768H10.268V18.32V11.408V10.9996L9.8678 10.9181L6.85298 10.3039C6.973 9.32528 7.26161 8.35814 7.7225 7.40091C8.26748 6.26902 8.87473 5.2013 9.54403 4.19735L9.72893 3.92L9.54403 3.64265L8.26403 1.72265ZM19.784 1.72265L19.5264 1.33615L19.122 1.56472C17.0988 2.70823 15.4027 4.20577 14.0377 6.05508L14.0377 6.05504L14.0331 6.06138C12.6768 7.96031 12.02 10.3961 12.02 13.328V18.32V18.82H12.52H21.288H21.788V18.32V11.408V10.9996L21.3878 10.9181L18.373 10.3039C18.493 9.32528 18.7816 8.35814 19.2425 7.40091C19.7875 6.26902 20.3947 5.2013 21.064 4.19735L21.2489 3.92L21.064 3.64265L19.784 1.72265Z" stroke="#E1A346"/>
</svg>
