<svg width="188" height="149" viewBox="0 0 188 149" fill="none" xmlns="http://www.w3.org/2000/svg">
<mask id="path-1-inside-1_310_841" fill="white">
<path d="M74 0.849976C93.626 0.849976 112.448 8.64638 126.326 22.5241C140.204 36.4018 148 55.224 148 74.85C148 94.476 140.204 113.298 126.326 127.176C112.448 141.054 93.626 148.85 74 148.85L74 74.85L74 0.849976Z"/>
</mask>
<path d="M74 0.849976C93.626 0.849976 112.448 8.64638 126.326 22.5241C140.204 36.4018 148 55.224 148 74.85C148 94.476 140.204 113.298 126.326 127.176C112.448 141.054 93.626 148.85 74 148.85L74 74.85L74 0.849976Z" stroke="#5C5C5C" stroke-width="1.68182" mask="url(#path-1-inside-1_310_841)"/>
<mask id="path-2-inside-2_310_841" fill="white">
<path d="M114 0.849976C123.718 0.849976 133.34 2.76404 142.319 6.4829C151.297 10.2017 159.454 15.6525 166.326 22.5241C173.197 29.3956 178.648 37.5533 182.367 46.5314C186.086 55.5095 188 65.1322 188 74.85C188 84.5678 186.086 94.1905 182.367 103.169C178.648 112.147 173.197 120.304 166.326 127.176C159.454 134.047 151.297 139.498 142.319 143.217C133.34 146.936 123.718 148.85 114 148.85L114 74.85L114 0.849976Z"/>
</mask>
<path d="M114 0.849976C123.718 0.849976 133.34 2.76404 142.319 6.4829C151.297 10.2017 159.454 15.6525 166.326 22.5241C173.197 29.3956 178.648 37.5533 182.367 46.5314C186.086 55.5095 188 65.1322 188 74.85C188 84.5678 186.086 94.1905 182.367 103.169C178.648 112.147 173.197 120.304 166.326 127.176C159.454 134.047 151.297 139.498 142.319 143.217C133.34 146.936 123.718 148.85 114 148.85L114 74.85L114 0.849976Z" stroke="#5C5C5C" stroke-width="1.68182" mask="url(#path-2-inside-2_310_841)"/>
</svg>
