<svg width="160" height="28" viewBox="0 0 160 28" fill="none" xmlns="http://www.w3.org/2000/svg">
<circle cx="15.3588" cy="14.3593" r="12.6128" fill="url(#paint0_linear_540_2763)"/>
<ellipse cx="15.0003" cy="14" rx="2.99025" ry="18.2229" transform="rotate(45 15.0003 14)" fill="url(#paint1_linear_540_2763)"/>
<path d="M48.12 17.576H47.238L52.446 9.442H54.308V18.5H52.446V11.92L52.894 12.046L48.736 18.5H46.65L42.492 12.074L42.94 11.948V18.5H41.078V9.442H42.94L48.12 17.576ZM58.3209 14.72V16.946H65.3069V18.5H56.4589V9.442H65.2929V10.996H58.3209V13.25H64.0329V14.72H58.3209ZM67.2186 18.5V9.442H73.3646C74.0646 9.442 74.6713 9.54 75.1846 9.736C75.7073 9.92267 76.1133 10.2213 76.4026 10.632C76.692 11.0333 76.8366 11.5513 76.8366 12.186C76.8366 12.6153 76.762 12.9793 76.6126 13.278C76.4633 13.5767 76.2533 13.8193 75.9826 14.006C75.7213 14.1927 75.418 14.3373 75.0726 14.44C74.7273 14.5333 74.3586 14.594 73.9666 14.622L73.7706 14.51C74.424 14.5193 74.9606 14.5753 75.3806 14.678C75.8006 14.7713 76.1133 14.9487 76.3186 15.21C76.5333 15.462 76.6406 15.84 76.6406 16.344V18.5H74.7786V16.47C74.7786 16.1247 74.718 15.8587 74.5966 15.672C74.4753 15.476 74.256 15.3407 73.9386 15.266C73.6306 15.1913 73.1826 15.154 72.5946 15.154H69.0806V18.5H67.2186ZM69.0806 13.698H73.3646C73.8873 13.698 74.284 13.572 74.5546 13.32C74.8346 13.068 74.9746 12.7273 74.9746 12.298C74.9746 11.8873 74.8346 11.5747 74.5546 11.36C74.284 11.1453 73.8873 11.038 73.3646 11.038H69.0806V13.698ZM89.355 15.238C89.271 15.966 89.0144 16.5867 88.585 17.1C88.1557 17.6133 87.5724 18.0053 86.835 18.276C86.0977 18.5467 85.2204 18.682 84.203 18.682C83.3537 18.682 82.5744 18.584 81.865 18.388C81.165 18.192 80.5584 17.898 80.045 17.506C79.541 17.114 79.149 16.6287 78.869 16.05C78.589 15.462 78.449 14.776 78.449 13.992C78.449 13.208 78.589 12.522 78.869 11.934C79.149 11.346 79.541 10.856 80.045 10.464C80.5584 10.0627 81.165 9.764 81.865 9.568C82.5744 9.36267 83.3537 9.26 84.203 9.26C85.2204 9.26 86.0977 9.4 86.835 9.68C87.5817 9.96 88.1697 10.3613 88.599 10.884C89.0284 11.3973 89.2804 12.0227 89.355 12.76H87.507C87.3857 12.368 87.1804 12.032 86.891 11.752C86.611 11.4627 86.247 11.2433 85.799 11.094C85.351 10.9447 84.819 10.87 84.203 10.87C83.4377 10.87 82.7657 10.9913 82.187 11.234C81.6084 11.4673 81.1604 11.8173 80.843 12.284C80.5257 12.7413 80.367 13.3107 80.367 13.992C80.367 14.664 80.5257 15.2287 80.843 15.686C81.1604 16.1433 81.6084 16.4933 82.187 16.736C82.7657 16.9693 83.4377 17.086 84.203 17.086C84.819 17.086 85.3464 17.0113 85.785 16.862C86.233 16.7127 86.597 16.498 86.877 16.218C87.1664 15.938 87.3764 15.6113 87.507 15.238H89.355ZM99.4878 14.496V9.442H101.35V14.692C101.35 15.2893 101.261 15.812 101.084 16.26C100.916 16.708 100.673 17.086 100.356 17.394C100.038 17.702 99.6651 17.954 99.2358 18.15C98.8158 18.3367 98.3538 18.472 97.8498 18.556C97.3551 18.64 96.8324 18.682 96.2818 18.682C95.7124 18.682 95.1711 18.64 94.6578 18.556C94.1444 18.472 93.6731 18.3367 93.2438 18.15C92.8238 17.954 92.4598 17.702 92.1517 17.394C91.8438 17.086 91.6011 16.708 91.4238 16.26C91.2558 15.812 91.1718 15.2893 91.1718 14.692V9.442H93.0338V14.496C93.0338 15.2053 93.1738 15.7467 93.4538 16.12C93.7338 16.484 94.1164 16.736 94.6018 16.876C95.0964 17.0067 95.6564 17.072 96.2818 17.072C96.8884 17.072 97.4298 17.0067 97.9058 16.876C98.3911 16.736 98.7738 16.484 99.0538 16.12C99.3431 15.7467 99.4878 15.2053 99.4878 14.496ZM103.504 18.5V9.442H109.65C110.35 9.442 110.956 9.54 111.47 9.736C111.992 9.92267 112.398 10.2213 112.688 10.632C112.977 11.0333 113.122 11.5513 113.122 12.186C113.122 12.6153 113.047 12.9793 112.898 13.278C112.748 13.5767 112.538 13.8193 112.268 14.006C112.006 14.1927 111.703 14.3373 111.358 14.44C111.012 14.5333 110.644 14.594 110.252 14.622L110.056 14.51C110.709 14.5193 111.246 14.5753 111.666 14.678C112.086 14.7713 112.398 14.9487 112.604 15.21C112.818 15.462 112.926 15.84 112.926 16.344V18.5H111.064V16.47C111.064 16.1247 111.003 15.8587 110.882 15.672C110.76 15.476 110.541 15.3407 110.224 15.266C109.916 15.1913 109.468 15.154 108.88 15.154H105.366V18.5H103.504ZM105.366 13.698H109.65C110.172 13.698 110.569 13.572 110.84 13.32C111.12 13.068 111.26 12.7273 111.26 12.298C111.26 11.8873 111.12 11.5747 110.84 11.36C110.569 11.1453 110.172 11.038 109.65 11.038H105.366V13.698ZM123.908 9.442L119.932 15.644V18.5H118.056V15.644L114.08 9.442H116.236L119.582 14.86H118.462L121.752 9.442H123.908ZM130.495 9.442V16.946H136.515V18.5H128.633V9.442H130.495ZM139.658 16.526V14.972H145.65V16.526H139.658ZM137.404 18.5L141.66 9.442H143.676L147.974 18.5H145.944L142.22 10.338H143.116L139.42 18.5H137.404ZM149.291 18.5V9.442H154.513C155.726 9.442 156.646 9.64733 157.271 10.058C157.906 10.4593 158.223 11.0613 158.223 11.864C158.223 12.3773 158.097 12.7833 157.845 13.082C157.593 13.3713 157.234 13.586 156.767 13.726C156.31 13.866 155.768 13.9547 155.143 13.992L155.199 13.894C155.656 13.9033 156.086 13.936 156.487 13.992C156.898 14.048 157.257 14.1507 157.565 14.3C157.873 14.4493 158.116 14.6593 158.293 14.93C158.47 15.1913 158.559 15.5367 158.559 15.966C158.559 16.526 158.41 16.9927 158.111 17.366C157.812 17.73 157.397 18.0053 156.865 18.192C156.333 18.3787 155.717 18.4813 155.017 18.5H149.291ZM151.153 16.96H154.821C155.409 16.96 155.862 16.8667 156.179 16.68C156.496 16.484 156.655 16.176 156.655 15.756C156.655 15.448 156.562 15.224 156.375 15.084C156.188 14.944 155.941 14.86 155.633 14.832C155.325 14.7947 154.994 14.776 154.639 14.776H151.153V16.96ZM151.153 13.278H154.443C155.031 13.278 155.484 13.194 155.801 13.026C156.118 12.8487 156.277 12.55 156.277 12.13C156.277 11.71 156.118 11.416 155.801 11.248C155.484 11.0707 155.064 10.982 154.541 10.982H151.153V13.278Z" fill="white"/>
<defs>
<linearGradient id="paint0_linear_540_2763" x1="28.392" y1="-1.1964" x2="-4.82156" y2="33.2785" gradientUnits="userSpaceOnUse">
<stop stop-color="#DF972C"/>
<stop offset="1" stop-color="white" stop-opacity="0.58"/>
</linearGradient>
<linearGradient id="paint1_linear_540_2763" x1="18.0903" y1="-8.47497" x2="2.19337" y2="-5.76735" gradientUnits="userSpaceOnUse">
<stop stop-color="white"/>
<stop offset="1" stop-color="white" stop-opacity="0.58"/>
</linearGradient>
</defs>
</svg>
